<mxfile host="app.diagrams.net" modified="2021-07-13T08:25:47.648Z" agent="5.0 (Windows NT 10.0; Win64; x64) AppleWebKit/537.36 (KHTML, like Gecko) Chrome/91.0.4472.124 Safari/537.36" etag="412bim8s2FBrGwdXrakI" version="14.8.4" type="github">
  <diagram id="spt_X_TDYJCYeXwcaunv" name="Page-1">
    <mxGraphModel dx="1422" dy="762" grid="1" gridSize="10" guides="1" tooltips="1" connect="1" arrows="1" fold="1" page="1" pageScale="1" pageWidth="827" pageHeight="1169" math="0" shadow="0">
      <root>
        <mxCell id="0" />
        <mxCell id="1" parent="0" />
        <mxCell id="V8HFnOxOmvsV15-gu9vl-7" style="edgeStyle=orthogonalEdgeStyle;rounded=0;orthogonalLoop=1;jettySize=auto;html=1;entryX=0.5;entryY=0;entryDx=0;entryDy=0;" edge="1" parent="1" source="V8HFnOxOmvsV15-gu9vl-1" target="V8HFnOxOmvsV15-gu9vl-4">
          <mxGeometry relative="1" as="geometry" />
        </mxCell>
        <mxCell id="V8HFnOxOmvsV15-gu9vl-1" value="编辑待建档和草稿客户资料" style="rounded=0;whiteSpace=wrap;html=1;" vertex="1" parent="1">
          <mxGeometry x="160" y="80" width="120" height="60" as="geometry" />
        </mxCell>
        <mxCell id="V8HFnOxOmvsV15-gu9vl-8" style="edgeStyle=orthogonalEdgeStyle;rounded=0;orthogonalLoop=1;jettySize=auto;html=1;entryX=0.5;entryY=0;entryDx=0;entryDy=0;" edge="1" parent="1" source="V8HFnOxOmvsV15-gu9vl-4" target="V8HFnOxOmvsV15-gu9vl-5">
          <mxGeometry relative="1" as="geometry" />
        </mxCell>
        <mxCell id="V8HFnOxOmvsV15-gu9vl-20" value="是" style="edgeLabel;html=1;align=center;verticalAlign=middle;resizable=0;points=[];" vertex="1" connectable="0" parent="V8HFnOxOmvsV15-gu9vl-8">
          <mxGeometry x="-0.6205" y="2" relative="1" as="geometry">
            <mxPoint as="offset" />
          </mxGeometry>
        </mxCell>
        <mxCell id="V8HFnOxOmvsV15-gu9vl-15" style="edgeStyle=orthogonalEdgeStyle;rounded=0;orthogonalLoop=1;jettySize=auto;html=1;entryX=0.5;entryY=0;entryDx=0;entryDy=0;" edge="1" parent="1" source="V8HFnOxOmvsV15-gu9vl-4" target="V8HFnOxOmvsV15-gu9vl-14">
          <mxGeometry relative="1" as="geometry" />
        </mxCell>
        <mxCell id="V8HFnOxOmvsV15-gu9vl-21" value="否" style="edgeLabel;html=1;align=center;verticalAlign=middle;resizable=0;points=[];" vertex="1" connectable="0" parent="V8HFnOxOmvsV15-gu9vl-15">
          <mxGeometry x="-0.3533" relative="1" as="geometry">
            <mxPoint as="offset" />
          </mxGeometry>
        </mxCell>
        <mxCell id="V8HFnOxOmvsV15-gu9vl-4" value="&lt;span&gt;根据校验规则，查找transfer表有没有信息&lt;/span&gt;" style="rhombus;whiteSpace=wrap;html=1;" vertex="1" parent="1">
          <mxGeometry x="105" y="190" width="230" height="80" as="geometry" />
        </mxCell>
        <mxCell id="V8HFnOxOmvsV15-gu9vl-9" style="edgeStyle=orthogonalEdgeStyle;rounded=0;orthogonalLoop=1;jettySize=auto;html=1;entryX=0.5;entryY=0;entryDx=0;entryDy=0;" edge="1" parent="1" source="V8HFnOxOmvsV15-gu9vl-5" target="V8HFnOxOmvsV15-gu9vl-6">
          <mxGeometry relative="1" as="geometry" />
        </mxCell>
        <mxCell id="V8HFnOxOmvsV15-gu9vl-24" value="是" style="edgeLabel;html=1;align=center;verticalAlign=middle;resizable=0;points=[];" vertex="1" connectable="0" parent="V8HFnOxOmvsV15-gu9vl-9">
          <mxGeometry x="0.2286" y="1" relative="1" as="geometry">
            <mxPoint as="offset" />
          </mxGeometry>
        </mxCell>
        <mxCell id="V8HFnOxOmvsV15-gu9vl-11" style="edgeStyle=orthogonalEdgeStyle;rounded=0;orthogonalLoop=1;jettySize=auto;html=1;entryX=0.5;entryY=0;entryDx=0;entryDy=0;" edge="1" parent="1" source="V8HFnOxOmvsV15-gu9vl-5" target="V8HFnOxOmvsV15-gu9vl-10">
          <mxGeometry relative="1" as="geometry" />
        </mxCell>
        <mxCell id="V8HFnOxOmvsV15-gu9vl-25" value="否" style="edgeLabel;html=1;align=center;verticalAlign=middle;resizable=0;points=[];" vertex="1" connectable="0" parent="V8HFnOxOmvsV15-gu9vl-11">
          <mxGeometry x="0.0426" y="-1" relative="1" as="geometry">
            <mxPoint as="offset" />
          </mxGeometry>
        </mxCell>
        <mxCell id="V8HFnOxOmvsV15-gu9vl-5" value="有没有ysb_customer_id" style="rhombus;whiteSpace=wrap;html=1;" vertex="1" parent="1">
          <mxGeometry x="105" y="660" width="230" height="80" as="geometry" />
        </mxCell>
        <mxCell id="V8HFnOxOmvsV15-gu9vl-6" value="前端提示是否覆盖" style="rounded=0;whiteSpace=wrap;html=1;" vertex="1" parent="1">
          <mxGeometry x="160" y="880" width="120" height="60" as="geometry" />
        </mxCell>
        <mxCell id="V8HFnOxOmvsV15-gu9vl-10" value="前端提示&quot;中台已存在相同供应商&quot;" style="rounded=0;whiteSpace=wrap;html=1;" vertex="1" parent="1">
          <mxGeometry x="400" y="880" width="120" height="60" as="geometry" />
        </mxCell>
        <mxCell id="V8HFnOxOmvsV15-gu9vl-16" style="edgeStyle=orthogonalEdgeStyle;rounded=0;orthogonalLoop=1;jettySize=auto;html=1;entryX=0.5;entryY=0;entryDx=0;entryDy=0;" edge="1" parent="1" source="V8HFnOxOmvsV15-gu9vl-14" target="V8HFnOxOmvsV15-gu9vl-5">
          <mxGeometry relative="1" as="geometry" />
        </mxCell>
        <mxCell id="V8HFnOxOmvsV15-gu9vl-22" value="是" style="edgeLabel;html=1;align=center;verticalAlign=middle;resizable=0;points=[];" vertex="1" connectable="0" parent="V8HFnOxOmvsV15-gu9vl-16">
          <mxGeometry x="-0.7692" y="-4" relative="1" as="geometry">
            <mxPoint as="offset" />
          </mxGeometry>
        </mxCell>
        <mxCell id="V8HFnOxOmvsV15-gu9vl-19" style="edgeStyle=orthogonalEdgeStyle;rounded=0;orthogonalLoop=1;jettySize=auto;html=1;entryX=0.5;entryY=0;entryDx=0;entryDy=0;" edge="1" parent="1" source="V8HFnOxOmvsV15-gu9vl-14" target="V8HFnOxOmvsV15-gu9vl-17">
          <mxGeometry relative="1" as="geometry">
            <Array as="points">
              <mxPoint x="670" y="420" />
            </Array>
          </mxGeometry>
        </mxCell>
        <mxCell id="V8HFnOxOmvsV15-gu9vl-23" value="否" style="edgeLabel;html=1;align=center;verticalAlign=middle;resizable=0;points=[];" vertex="1" connectable="0" parent="V8HFnOxOmvsV15-gu9vl-19">
          <mxGeometry x="-0.5224" relative="1" as="geometry">
            <mxPoint as="offset" />
          </mxGeometry>
        </mxCell>
        <mxCell id="V8HFnOxOmvsV15-gu9vl-14" value="根据校验规则，查找release表有没有相同供应商(需要是有效的)" style="rhombus;whiteSpace=wrap;html=1;" vertex="1" parent="1">
          <mxGeometry x="370" y="380" width="230" height="80" as="geometry" />
        </mxCell>
        <mxCell id="V8HFnOxOmvsV15-gu9vl-17" value="调用保存接口" style="rounded=0;whiteSpace=wrap;html=1;" vertex="1" parent="1">
          <mxGeometry x="600" y="880" width="140" height="60" as="geometry" />
        </mxCell>
      </root>
    </mxGraphModel>
  </diagram>
</mxfile>
